<?xml version="1.0" encoding="UTF-8"?>
<svg width="320" height="100" viewBox="0 0 320 100" xmlns="http://www.w3.org/2000/svg">
  <defs>
    <style>
      .symbol { fill: #a2d7fc; }
      .text { fill: #f7f7f7; }
    </style>
  </defs>
  
  <!-- Symbol/Icon part -->
  <g class="symbol" transform="matrix(1.272264532248264,0,0,1.272264532248264,-14.249362518515355,-13.994909854730903)">
    <path d="M29.5,25.5c2.5,0,4.6-2.1,4.6-4.6s-2.1-4.6-4.6-4.6c-2.5,0-4.6,2.1-4.6,4.6S27,25.5,29.5,25.5z M27,58  c0,0.7,0.6,1.3,1.3,1.3c0.7,0,1.3-0.6,1.3-1.3s-0.6-1.3-1.3-1.3C27.6,56.7,27,57.3,27,58z M36.2,31.3c1.1,0,1.9-0.9,1.9-1.9  c0-1.1-0.9-1.9-1.9-1.9c-1.1,0-1.9,0.9-1.9,1.9C34.3,30.4,35.1,31.3,36.2,31.3z M21.1,48.6c2.5,0,4.6-2.1,4.6-4.6  c0-2.5-2.1-4.6-4.6-4.6s-4.6,2.1-4.6,4.6C16.6,46.5,18.6,48.6,21.1,48.6z M14.5,37.8c1.1,0,1.9-0.9,1.9-1.9c0-1.1-0.9-1.9-1.9-1.9  c-1.1,0-1.9,0.9-1.9,1.9C12.6,37,13.4,37.8,14.5,37.8z M13.8,42c0-0.7-0.6-1.3-1.3-1.3c-0.7,0-1.3,0.6-1.3,1.3s0.6,1.3,1.3,1.3  C13.2,43.3,13.8,42.7,13.8,42z M19.9,31.2c1.8,0,3.2-1.4,3.2-3.2s-1.4-3.2-3.2-3.2c-1.8,0-3.2,1.4-3.2,3.2S18.1,31.2,19.9,31.2z   M58.8,13.6c0.7,0,1.3-0.6,1.3-1.3c0-0.7-0.6-1.3-1.3-1.3c-0.7,0-1.3,0.6-1.3,1.3C57.5,13,58.1,13.6,58.8,13.6z M23.8,57.5  c0-3.1-2.5-5.6-5.6-5.6c-3.1,0-5.6,2.5-5.6,5.6s2.5,5.6,5.6,5.6C21.3,63.1,23.8,60.6,23.8,57.5z M79.9,33.9c2.5,0,4.6-2.1,4.6-4.6  s-2.1-4.6-4.6-4.6s-4.6,2.1-4.6,4.6S77.3,33.9,79.9,33.9z M69.6,65.5c0,1.8,1.4,3.2,3.2,3.2c1.8,0,3.2-1.4,3.2-3.2s-1.4-3.2-3.2-3.2  C71,62.3,69.6,63.7,69.6,65.5z M72.8,22.9c1.8,0,3.2-1.4,3.2-3.2c0-1.8-1.4-3.2-3.2-3.2c-1.8,0-3.2,1.4-3.2,3.2  C69.6,21.5,71,22.9,72.8,22.9z M65.7,31.2c1.8,0,3.2-1.4,3.2-3.2s-1.4-3.2-3.2-3.2c-1.8,0-3.2,1.4-3.2,3.2S63.9,31.2,65.7,31.2z   M77.2,42.5c0,3.1,2.5,5.6,5.6,5.6c3.1,0,5.6-2.5,5.6-5.6s-2.5-5.6-5.6-5.6C79.7,36.9,77.2,39.4,77.2,42.5z M74,42  c0-0.7-0.6-1.3-1.3-1.3c-0.7,0-1.3,0.6-1.3,1.3s0.6,1.3,1.3,1.3C73.4,43.3,74,42.7,74,42z M64.8,16.1c1.1,0,1.9-0.9,1.9-1.9  s-0.9-1.9-1.9-1.9c-1.1,0-1.9,0.9-1.9,1.9S63.8,16.1,64.8,16.1z M70.8,37.8c1.1,0,1.9-0.9,1.9-1.9c0-1.1-0.9-1.9-1.9-1.9  s-1.9,0.9-1.9,1.9C68.9,37,69.8,37.8,70.8,37.8z M31.4,34.5c0-1.8-1.4-3.2-3.2-3.2c-1.8,0-3.2,1.4-3.2,3.2s1.4,3.2,3.2,3.2  C30,37.7,31.4,36.3,31.4,34.5z M64.8,68.7c-1.1,0-1.9,0.9-1.9,1.9c0,1.1,0.9,1.9,1.9,1.9c1.1,0,1.9-0.9,1.9-1.9  C66.7,69.6,65.9,68.7,64.8,68.7z M58.3,76.4c-3.1,0-5.6,2.5-5.6,5.6s2.5,5.6,5.6,5.6c3.1,0,5.6-2.5,5.6-5.6S61.4,76.4,58.3,76.4z   M71.5,74.5c-2.5,0-4.6,2.1-4.6,4.6s2.1,4.6,4.6,4.6c2.5,0,4.6-2.1,4.6-4.6S74,74.5,71.5,74.5z M57.5,72.5c0,0.7,0.6,1.3,1.3,1.3  c0.7,0,1.3-0.6,1.3-1.3c0-0.7-0.6-1.3-1.3-1.3C58.1,71.3,57.5,71.8,57.5,72.5z M88.5,56.7c-0.7,0-1.3,0.6-1.3,1.3s0.6,1.3,1.3,1.3  c0.7,0,1.3-0.6,1.3-1.3S89.1,56.7,88.5,56.7z M86.5,62.2c-1.1,0-1.9,0.9-1.9,1.9c0,1.1,0.9,1.9,1.9,1.9c1.1,0,1.9-0.9,1.9-1.9  C88.4,63,87.6,62.2,86.5,62.2z M56.2,25.5c2.5,0,4.6-2.1,4.6-4.6s-2.1-4.6-4.6-4.6s-4.6,2.1-4.6,4.6S53.7,25.5,56.2,25.5z   M79.9,51.4c-2.5,0-4.6,2.1-4.6,4.6c0,2.5,2.1,4.6,4.6,4.6s4.6-2.1,4.6-4.6C84.4,53.5,82.4,51.4,79.9,51.4z M21.1,66.1  c-2.5,0-4.6,2.1-4.6,4.6s2.1,4.6,4.6,4.6s4.6-2.1,4.6-4.6S23.7,66.1,21.1,66.1z M81.1,68.8c-1.8,0-3.2,1.4-3.2,3.2s1.4,3.2,3.2,3.2  c1.8,0,3.2-1.4,3.2-3.2S82.9,68.8,81.1,68.8z M30.2,62.2c-1.1,0-1.9,0.9-1.9,1.9c0,1.1,0.9,1.9,1.9,1.9s1.9-0.9,1.9-1.9  C32.1,63,31.2,62.2,30.2,62.2z M35.3,68.8c-1.8,0-3.2,1.4-3.2,3.2s1.4,3.2,3.2,3.2c1.8,0,3.2-1.4,3.2-3.2S37.1,68.8,35.3,68.8z   M36.2,83.9c-1.1,0-1.9,0.9-1.9,1.9s0.9,1.9,1.9,1.9c1.1,0,1.9-0.9,1.9-1.9S37.2,83.9,36.2,83.9z M28.2,77.1c-1.8,0-3.2,1.4-3.2,3.2  c0,1.8,1.4,3.2,3.2,3.2c1.8,0,3.2-1.4,3.2-3.2C31.4,78.5,30,77.1,28.2,77.1z M41,27.5c0,0.7,0.6,1.3,1.3,1.3c0.7,0,1.3-0.6,1.3-1.3  c0-0.7-0.6-1.3-1.3-1.3C41.5,26.2,41,26.8,41,27.5z M48.3,17.9c0-3.1-2.5-5.6-5.6-5.6c-3.1,0-5.6,2.5-5.6,5.6s2.5,5.6,5.6,5.6  C45.8,23.6,48.3,21.1,48.3,17.9z M42.2,86.4c-0.7,0-1.3,0.6-1.3,1.3c0,0.7,0.6,1.3,1.3,1.3c0.7,0,1.3-0.6,1.3-1.3  C43.5,87,42.9,86.4,42.2,86.4z M44.8,74.5c-2.5,0-4.6,2.1-4.6,4.6s2.1,4.6,4.6,4.6s4.6-2.1,4.6-4.6S47.3,74.5,44.8,74.5z"/>
  </g>
  
  <!-- Text part "Lunaris" -->
  <g class="text" transform="matrix(1.4380212637827468,0,0,1.4380212637827468,118.04429208923736,3.3853908397018593)">
    <path d="M17.56 33.28 c0.12 0 0.2 0.08 0.2 0.2 l0 6.52 l-16.2 0 c-0.12 0 -0.2 -0.08 -0.2 -0.2 s0.08 -0.2 0.2 -0.2 l1.16 0 c0.52 0 0.84 -0.4 0.84 -0.84 l0 -23.88 c0 -0.44 -0.32 -0.84 -0.84 -0.84 l-1.16 0 c-0.12 0 -0.2 -0.08 -0.2 -0.2 s0.08 -0.2 0.2 -0.2 l6.52 0 c0.12 0 0.2 0.08 0.2 0.2 s-0.08 0.2 -0.2 0.2 l-1.16 0 c-0.52 0 -0.84 0.4 -0.84 0.84 l0 23.88 c0 0.44 0.32 0.84 0.84 0.84 l5.52 0 c3.28 0 4.92 -2.56 4.92 -5.32 l0 -0.8 c0 -0.12 0.08 -0.2 0.2 -0.2 z M38.88 39.6 c0.12 0 0.2 0.08 0.2 0.2 s-0.08 0.2 -0.2 0.2 l-4.4 0 l0 -5.8 c-0.88 3.44 -3.24 6.04 -6.92 6.04 c-3.44 0 -5.4 -2 -5.4 -5.44 l0 -11.6 c0 -0.44 -0.32 -0.84 -0.84 -0.84 l-1.16 0 c-0.12 0 -0.2 -0.08 -0.2 -0.2 s0.08 -0.2 0.2 -0.2 l4.4 0 l0 11.92 c0 4.52 2.04 5.68 3.72 5.68 c3.8 0 6.2 -4 6.2 -8.64 l0 -7.72 c0 -0.44 -0.32 -0.84 -0.84 -0.84 l-1.16 0 c-0.12 0 -0.2 -0.08 -0.2 -0.2 s0.08 -0.2 0.2 -0.2 l4.4 0 l0 16.8 c0 0.44 0.32 0.84 0.84 0.84 l1.16 0 z M61.4 39.6 c0.12 0 0.2 0.08 0.2 0.2 s-0.08 0.2 -0.2 0.2 l-6.4 0 c-0.12 0 -0.2 -0.08 -0.2 -0.2 s0.08 -0.2 0.2 -0.2 l1.16 0 c0.52 0 0.84 -0.4 0.84 -0.84 l0 -10.64 c0 -4.52 -2.28 -5.68 -3.96 -5.68 c-3.8 0 -6.44 4 -6.44 8.64 l0 7.68 c0 0.44 0.32 0.84 0.84 0.84 l1.16 0 c0.12 0 0.2 0.08 0.2 0.2 s-0.08 0.2 -0.2 0.2 l-6.4 0 c-0.12 0 -0.2 -0.08 -0.2 -0.2 s0.08 -0.2 0.2 -0.2 l1.16 0 c0.52 0 0.84 -0.4 0.84 -0.84 l0 -15.56 c0 -0.44 -0.32 -0.84 -0.84 -0.84 l-1.16 0 c-0.12 0 -0.2 -0.08 -0.2 -0.2 s0.08 -0.2 0.2 -0.2 l4.4 0 l0 5.96 c0.92 -3.52 3.44 -6.16 7.16 -6.16 c3.44 0 5.64 2 5.64 5.44 l0 11.56 c0 0.44 0.32 0.84 0.84 0.84 l1.16 0 z M84.08 39.6 c0.12 0 0.2 0.08 0.2 0.2 s-0.08 0.2 -0.2 0.2 l-4.4 0 l0 -5.88 c-0.96 3.52 -3.48 6.16 -6.72 6.16 c-3.76 0 -7.76 -2.44 -7.76 -9.32 c0 -6.44 4 -9.28 7.76 -9.28 c3.24 0 5.76 2.68 6.72 6.2 l0 -5.92 l2.4 0 l0 16.8 c0 0.44 0.32 0.84 0.84 0.84 l1.16 0 z M73.64 39.6 c3.12 0 6.04 -3.8 6.04 -8.6 c0 -4.76 -2.92 -8.64 -6.04 -8.64 c-3.32 0 -5.76 2.8 -5.76 8.6 c0 5.84 2.44 8.64 5.76 8.64 z M97.76 21.76 c2.64 0 3.28 1.72 3.28 3.16 c0 1.12 -0.48 2.08 -1.6 2.08 c-0.72 0 -1.36 -0.4 -1.36 -1.32 c0 -0.96 1.16 -1.44 1.16 -2.2 c0 -0.72 -0.6 -1.2 -1.72 -1.2 c-2.68 0 -5.72 3.48 -5.72 10.28 l0 6.2 c0 0.44 0.32 0.84 0.84 0.84 l2.28 0 c0.12 0 0.2 0.08 0.2 0.2 s-0.08 0.2 -0.2 0.2 l-7.52 0 c-0.12 0 -0.2 -0.08 -0.2 -0.2 s0.08 -0.2 0.2 -0.2 l1.16 0 c0.52 0 0.84 -0.4 0.84 -0.84 l0 -15.56 c0 -0.44 -0.32 -0.84 -0.84 -0.84 l-1.16 0 c-0.12 0 -0.2 -0.08 -0.2 -0.2 s0.08 -0.2 0.2 -0.2 l4.4 0 l0 6.52 c1.04 -5 3.92 -6.72 5.96 -6.72 z M115.56 21.96 l4.4 0 l0 20.28 c0 5.72 -2.8 8.8 -8.64 8.8 c-4.96 0 -7.16 -3.16 -7.16 -5.76 c0 -1.36 0.8 -1.96 1.52 -1.96 c0.6 0 1.16 0.44 1.16 1.24 c0 1.16 -1.4 1.12 -1.4 2.36 c0 1.16 1.6 3.68 5.72 3.68 c4.96 0 6.4 -3.96 6.4 -7.4 l0 -9 c-0.88 3.44 -3.24 6.04 -6.92 6.04 c-3.44 0 -5.4 -2 -5.4 -5.44 l0 -11.6 c0 -0.44 -0.32 -0.84 -0.84 -0.84 l-1.16 0 c-0.12 0 -0.2 -0.08 -0.2 -0.2 s0.08 -0.2 0.2 -0.2 l4.4 0 l0 11.92 c0 4.52 2.04 5.68 3.72 5.68 c3.8 0 6.2 -4 6.2 -8.64 l0 -7.72 c0 -0.44 -0.32 -0.84 -0.84 -0.84 l-1.16 0 c-0.12 0 -0.2 -0.08 -0.2 -0.2 s0.08 -0.2 0.2 -0.2 z M133.16 23.2 c0 4.2 7.28 6.36 7.28 11.24 c0 3.76 -3.24 5.76 -7.8 5.76 c-4.08 0 -7.04 -2.12 -7.04 -5.24 c0 -1.16 0.56 -1.8 1.16 -2 l5.12 -9.64 c0.2 -1 0.64 -1.92 1.08 -2.64 c0.4 -0.64 0.92 -1.16 1.12 -1.16 c0.16 0 0.24 0.16 0.16 0.28 c-0.64 1.04 -1.08 2.12 -1.08 3.4 z M132.32 39.72 c4.56 0 5.76 -2.4 5.76 -4.72 c0 -3.64 -6.72 -6.4 -6.32 -10.6 l-4.52 8.48 c0.6 0.04 1.16 0.48 1.16 1.32 c0 1.16 -1.44 1.36 -1.44 2.32 c0 1.64 2.36 3.2 5.36 3.2 z"/>
  </g>
</svg>